<svg xmlns="http://www.w3.org/2000/svg" viewBox="0 0 688 506">
<g transform="translate(0.000000,506.000000) scale(0.100000,-0.100000)" fill="#0055BF" stroke="none">
<path d="M4267 4815 c-11 -5 -23 -17 -27 -25 -4 -8 -17 -35 -29 -58 -11 -24
-21 -50 -21 -58 0 -8 -4 -22 -9 -32 -5 -9 -14 -30 -21 -47 -7 -16 -16 -38 -21
-47 -5 -10 -9 -27 -9 -37 0 -11 -4 -23 -10 -26 -5 -3 -10 -15 -10 -26 0 -10
-4 -28 -10 -39 -5 -11 -14 -29 -20 -40 -5 -11 -10 -27 -10 -35 0 -8 -4 -23 -9
-33 -38 -76 -51 -106 -51 -121 0 -9 -4 -21 -8 -27 -5 -5 -15 -29 -22 -54 -8
-25 -16 -49 -20 -55 -3 -5 -12 -28 -19 -50 -7 -22 -17 -51 -23 -65 -19 -45
-26 -64 -39 -105 -7 -22 -17 -44 -21 -50 -4 -5 -8 -15 -8 -22 0 -7 -8 -32 -19
-56 -10 -23 -24 -62 -31 -87 -8 -25 -17 -49 -22 -55 -4 -5 -8 -17 -8 -27 0 -9
-9 -33 -20 -53 -11 -20 -20 -42 -20 -50 0 -9 -4 -23 -9 -33 -22 -43 -71 -173
-71 -188 0 -8 -4 -22 -9 -32 -12 -23 -26 -60 -41 -102 -7 -19 -20 -53 -30 -75
-10 -22 -28 -69 -40 -105 -22 -66 -35 -101 -51 -132 -5 -10 -9 -27 -9 -37 0
-11 -4 -23 -10 -26 -5 -3 -10 -15 -10 -25 0 -11 -9 -35 -20 -55 -11 -20 -20
-42 -20 -50 0 -8 -9 -30 -20 -50 -11 -20 -20 -42 -20 -50 0 -9 -4 -23 -10 -33
-5 -9 -19 -46 -31 -82 -12 -36 -25 -69 -30 -74 -5 -6 -9 -18 -9 -28 0 -10 -4
-26 -9 -36 -15 -29 -29 -65 -42 -107 -7 -22 -17 -44 -21 -49 -4 -6 -8 -18 -8
-28 0 -10 -4 -26 -9 -36 -12 -23 -26 -60 -41 -102 -7 -19 -16 -44 -20 -55 -4
-11 -13 -36 -20 -55 -15 -42 -29 -79 -41 -102 -5 -10 -9 -24 -9 -33 0 -8 -8
-29 -18 -47 -42 -79 -59 -185 -33 -211 6 -6 11 -21 11 -33 0 -13 5 -26 10 -29
6 -3 10 -14 10 -24 0 -30 52 -77 102 -90 51 -14 106 -3 139 28 19 18 47 79 69
151 7 25 17 49 22 55 4 5 8 15 8 22 0 7 8 32 18 56 10 23 27 65 36 92 54 153
68 192 76 210 20 47 63 164 76 205 8 25 19 54 24 65 5 11 18 49 30 85 12 36
28 79 35 95 13 29 39 101 72 195 8 25 19 49 24 54 5 6 9 18 9 28 0 10 4 26 9
36 5 9 24 55 41 102 18 47 36 94 40 105 5 11 18 49 30 85 12 36 25 74 30 85
21 50 95 250 116 315 8 25 20 56 26 70 14 32 23 57 38 100 14 40 23 64 38 100
5 14 20 52 32 85 12 33 26 69 30 80 5 11 18 49 30 85 12 36 30 84 41 107 10
24 19 47 19 52 0 4 9 30 19 57 11 27 29 76 41 109 12 33 26 69 30 80 4 11 18
47 30 80 12 33 28 74 35 90 8 17 18 43 24 58 l11 27 391 0 c234 0 418 -4 458
-11 80 -13 211 -51 211 -61 0 -5 9 -8 20 -8 11 0 20 -4 20 -10 0 -5 5 -10 10
-10 28 0 200 -138 200 -160 0 -6 8 -18 18 -28 39 -40 90 -171 107 -277 4 -22
9 -53 12 -69 6 -29 -9 -135 -29 -211 -15 -57 -70 -168 -90 -183 -10 -7 -25
-26 -33 -43 -13 -24 -44 -52 -130 -117 -34 -25 -154 -75 -230 -95 -24 -6 -237
-13 -524 -16 l-485 -6 -19 -50 c-36 -95 -57 -145 -68 -167 -5 -10 -9 -27 -9
-37 0 -11 -5 -23 -11 -27 -6 -3 -9 -17 -6 -30 2 -13 0 -24 -5 -24 -5 0 -6 -4
-3 -10 4 -6 192 -10 530 -10 357 0 540 -4 572 -11 84 -20 244 -72 249 -81 3
-4 14 -8 25 -8 10 0 19 -3 19 -8 0 -4 21 -18 48 -32 26 -14 56 -33 67 -43 10
-9 25 -15 32 -13 7 3 10 -1 6 -10 -3 -8 1 -14 9 -14 31 0 268 -256 268 -290 0
-4 3 -10 8 -12 4 -1 27 -43 51 -93 71 -146 72 -151 110 -343 14 -69 14 -246 0
-331 -11 -72 -48 -200 -61 -216 -4 -5 -8 -17 -8 -26 0 -15 -13 -45 -51 -121
-5 -10 -9 -22 -9 -28 0 -5 -9 -19 -20 -30 -11 -11 -20 -27 -20 -35 0 -8 -4
-15 -10 -15 -5 0 -16 -12 -24 -27 -9 -16 -31 -46 -51 -68 -19 -22 -47 -55 -62
-72 -16 -18 -34 -33 -42 -33 -8 0 -11 -6 -7 -16 3 -8 2 -13 -3 -10 -7 5 -57
-30 -147 -103 -23 -18 -170 -88 -219 -105 -155 -50 -118 -48 -851 -55 -564 -5
-694 -9 -707 -20 -14 -11 -17 -36 -17 -160 0 -101 4 -151 12 -159 16 -16 1288
-17 1387 -1 125 20 176 32 277 65 93 30 282 116 294 134 3 4 16 13 29 20 27
14 29 15 86 62 22 18 46 38 53 43 59 44 242 245 242 266 0 5 9 18 20 29 11 11
20 27 20 35 0 8 4 15 10 15 10 0 130 241 130 262 0 8 4 18 8 23 5 6 14 30 21
55 7 25 17 54 21 65 9 22 24 82 40 165 14 65 8 437 -8 520 -15 84 -60 217
-101 298 -11 24 -21 52 -21 63 0 10 -3 19 -8 19 -4 0 -13 15 -21 33 -22 50
-101 168 -117 174 -8 3 -14 11 -14 19 0 7 -21 37 -46 66 -25 29 -53 62 -62 73
-22 26 -140 127 -161 139 -9 5 -26 18 -38 28 -12 12 -27 17 -34 13 -7 -5 -10
-4 -6 2 9 14 -40 46 -55 37 -7 -4 -8 -3 -4 4 4 6 -6 18 -24 27 -32 16 -42 55
-15 55 16 0 156 138 207 202 47 60 142 277 167 381 14 60 14 346 0 401 -25 97
-33 122 -41 131 -4 5 -8 19 -8 32 0 13 -4 23 -10 23 -5 0 -10 6 -10 13 0 22
-59 137 -70 137 -5 0 -10 7 -10 15 0 13 -36 59 -119 150 -38 42 -116 105 -165
135 -22 13 -43 27 -46 30 -11 11 -51 30 -65 30 -8 0 -15 4 -15 8 0 4 -21 14
-47 21 -27 8 -50 17 -53 21 -7 9 -133 40 -210 52 -90 14 -1116 17 -1143 3z"/>
</g>
<g transform="translate(0.000000,506.000000) scale(0.100000,-0.100000)" fill="#E6010C" stroke="none">
<path d="M230 4828 c0 -17 24 -86 33 -94 4 -4 7 -18 7 -30 0 -13 5 -26 10 -29
6 -3 10 -14 10 -24 0 -9 9 -36 20 -59 11 -22 20 -46 20 -52 0 -5 4 -18 9 -28
5 -9 19 -44 31 -77 12 -33 26 -69 30 -80 5 -11 16 -40 24 -65 13 -43 39 -112
56 -155 4 -11 18 -47 30 -80 12 -33 27 -71 32 -85 6 -14 15 -36 21 -50 5 -14
13 -33 18 -42 5 -10 9 -26 9 -36 0 -10 4 -22 8 -27 4 -6 14 -28 21 -50 13 -43
18 -56 49 -125 11 -25 31 -79 45 -120 14 -42 33 -95 42 -120 9 -25 30 -81 47
-125 16 -44 34 -89 38 -100 4 -11 13 -36 20 -55 7 -19 16 -45 21 -57 5 -13 13
-33 18 -45 5 -13 14 -39 21 -58 7 -19 16 -44 21 -55 4 -11 15 -40 23 -65 12
-40 74 -202 96 -255 5 -11 18 -49 30 -85 12 -36 25 -74 30 -85 4 -11 18 -47
30 -80 12 -33 26 -69 30 -80 4 -11 13 -36 20 -55 7 -19 16 -44 20 -55 16 -40
49 -131 61 -170 7 -22 16 -44 19 -50 4 -5 12 -30 20 -55 7 -25 17 -49 22 -54
4 -6 8 -16 8 -23 0 -7 9 -32 19 -56 10 -23 21 -51 24 -62 13 -54 69 -191 85
-208 87 -98 300 -58 329 62 3 14 18 53 33 86 14 33 32 76 39 95 24 65 28 75
50 118 11 24 21 49 21 56 0 7 9 31 20 54 11 22 20 45 20 50 0 4 9 27 20 50 11
22 20 45 20 50 0 5 6 22 14 38 8 16 21 45 29 64 8 19 24 56 36 82 11 26 21 52
21 58 0 6 4 18 9 28 5 9 13 28 19 42 15 37 37 89 60 141 12 25 31 70 42 100
12 29 32 77 46 107 13 29 24 56 24 59 0 4 10 28 22 55 14 32 28 48 40 48 10 0
18 -7 18 -15 0 -8 4 -23 9 -33 5 -9 13 -28 18 -42 19 -47 31 -75 56 -130 14
-30 33 -73 42 -95 9 -22 25 -57 36 -78 10 -22 19 -45 19 -52 0 -7 10 -33 21
-57 20 -40 29 -60 50 -115 5 -13 14 -35 20 -50 7 -16 15 -37 19 -48 5 -11 15
-37 24 -57 9 -21 23 -55 32 -75 9 -21 19 -47 24 -58 35 -93 52 -125 62 -118 6
3 8 16 5 29 -2 13 0 21 5 18 4 -3 11 3 14 13 9 29 45 126 54 148 18 41 79 211
85 236 4 16 2 30 -4 33 -6 4 -11 14 -11 22 0 8 -9 36 -21 62 -12 26 -26 58
-31 72 -6 14 -14 33 -19 42 -5 10 -9 22 -9 28 0 6 -9 29 -19 53 -10 23 -31 74
-46 112 -15 39 -34 86 -42 105 -8 19 -18 44 -23 55 -4 11 -17 40 -29 63 -11
24 -21 50 -21 58 0 7 -9 29 -20 49 -11 20 -20 42 -20 50 0 9 -4 23 -9 33 -5 9
-13 28 -19 42 -5 14 -20 48 -32 75 -12 28 -26 59 -30 70 -55 142 -112 195
-208 195 -71 0 -165 -49 -177 -93 -6 -22 -10 -32 -39 -99 -9 -21 -23 -55 -32
-75 -21 -50 -35 -83 -45 -110 -5 -13 -13 -33 -18 -45 -17 -45 -29 -74 -49
-118 -11 -25 -32 -76 -47 -115 -15 -38 -34 -86 -42 -105 -8 -19 -18 -44 -23
-55 -4 -11 -17 -40 -29 -63 -11 -24 -21 -50 -21 -57 0 -7 -10 -33 -21 -57 -12
-23 -25 -52 -29 -63 -4 -11 -17 -40 -29 -63 -11 -24 -21 -50 -21 -58 0 -7 -9
-29 -20 -49 -11 -20 -20 -42 -20 -50 0 -8 -8 -29 -18 -47 -10 -18 -24 -52 -32
-75 -9 -30 -19 -43 -32 -43 -10 0 -18 7 -18 15 0 8 -4 24 -10 35 -5 11 -14 29
-20 40 -5 11 -10 29 -10 39 0 11 -4 23 -10 26 -5 3 -10 17 -10 30 0 13 -4 27
-10 30 -5 3 -10 15 -10 26 0 10 -4 27 -9 37 -16 31 -29 66 -51 132 -12 36 -30
84 -41 107 -10 24 -19 49 -19 56 0 8 -3 17 -7 20 -6 6 -41 103 -82 227 -17 51
-61 168 -81 215 -5 11 -18 49 -30 85 -12 36 -25 74 -30 85 -4 11 -13 36 -20
55 -7 19 -16 44 -20 55 -4 11 -18 47 -30 80 -12 33 -26 69 -30 80 -5 11 -16
40 -24 65 -14 46 -41 119 -56 155 -5 11 -19 49 -31 85 -12 36 -25 70 -28 75
-4 6 -14 30 -21 55 -7 25 -16 50 -20 55 -4 6 -12 30 -20 55 -7 25 -17 49 -22
55 -4 5 -8 17 -8 27 0 10 -4 26 -9 36 -15 29 -29 65 -42 107 -7 22 -17 44 -21
50 -4 5 -8 18 -8 30 0 12 -4 25 -8 30 -4 6 -14 28 -21 50 -14 45 -49 140 -62
170 -4 11 -16 45 -25 75 -9 30 -24 61 -32 68 -12 9 -70 12 -214 12 -152 0
-198 -3 -198 -12z"/>
</g>
<g transform="translate(0.000000,506.000000) scale(0.100000,-0.100000)" fill="#15B052" stroke="none">
<path d="M4697 2412 c-15 -16 -17 -49 -17 -258 0 -131 -4 -245 -8 -252 -5 -7
-22 -12 -38 -10 -16 1 -125 1 -241 0 l-212 -2 -17 -31 c-13 -26 -15 -59 -12
-190 2 -98 7 -162 14 -169 7 -7 96 -13 248 -17 177 -5 241 -10 251 -19 10 -10
13 -68 14 -245 1 -159 6 -237 14 -250 11 -18 25 -19 193 -19 156 0 183 2 195
16 10 13 15 74 17 258 2 132 7 245 11 249 4 4 116 9 248 10 186 2 244 5 256
16 15 12 17 38 17 197 0 127 -3 185 -12 190 -6 4 -121 8 -255 9 -147 2 -248 7
-256 13 -9 8 -12 71 -11 249 1 131 -3 246 -8 256 -8 15 -28 17 -192 17 -164 0
-185 -2 -199 -18z"/>
</g>
</svg>
